<svg xmlns="http://www.w3.org/2000/svg" viewBox="0 0 398.62 398.62"><defs><style>.cls-1{fill:#111010;}.cls-2{fill:#fff;}</style></defs><g id="Capa_2" data-name="Capa 2"><g id="Capa_1-2" data-name="Capa 1"><circle class="cls-1" cx="199.31" cy="199.31" r="199.31"/><path class="cls-2" d="M179.44,139.2l-35.39,57.68a2.13,2.13,0,0,0,0,2.14l18.84,33.74a2.14,2.14,0,0,1-.06,2.16l-17.1,27.15a1.22,1.22,0,0,1-2.09-.05l-35.21-61.83a2.12,2.12,0,0,1,0-2.11L144,137a2.11,2.11,0,0,1,1.83-1.05h31.82A2.11,2.11,0,0,1,179.44,139.2ZM221,262.64H252.8a2.12,2.12,0,0,0,1.83-1.05l35.59-61.06a2.12,2.12,0,0,0,0-2.11L255,136.6a1.22,1.22,0,0,0-2.09,0l-17.1,27.15a2.09,2.09,0,0,0-.06,2.16l18.84,33.74a2.11,2.11,0,0,1-.05,2.13l-35.39,57.69A2.12,2.12,0,0,0,221,262.64Zm-64,9.26c.64,0,2.7-1.94,2.7-1.94l9.1-10.66,72.71-125.66s1.72-4.22-2-6.32-5.6,1.91-5.6,1.91L161.68,254.52l-4.35,13.88S156.32,271.9,157,271.9Z"/></g></g></svg>